<svg width="30" height="30" viewBox="0 0 30 30" fill="none" xmlns="http://www.w3.org/2000/svg">
<path d="M21.212 6.37981C21.0936 3.86709 19.1993 1.75262 16.6342 1.26904L9.90564 0.0079406C8.44548 -0.0963608 8.03112 0.861316 8.03112 0.861316C7.17278 2.19827 8.46522 3.37403 8.46522 3.37403C6.95573 4.50239 8.2087 5.95312 8.2087 5.95312V8.93045C8.2087 12.4198 11.1586 15.2454 14.7794 15.236C18.3805 15.217 21.3008 12.4008 21.3008 8.93045L21.212 6.37033V6.37981Z" fill="#CBCBCB"/>
<path d="M15.007 16.7727C8.66317 16.7727 3.16786 19.1621 0.553389 23.6566C-1.10409 26.5012 1.17494 30 4.55895 30H25.4451C28.8291 30 31.0983 26.5012 29.4506 23.6566C26.8362 19.1621 21.3507 16.7727 14.9971 16.7727H15.007Z" fill="#CBCBCB"/>
</svg>
