<svg width="88" height="88" viewBox="0 0 88 88" fill="none" xmlns="http://www.w3.org/2000/svg">
<rect width="88" height="88" rx="10" fill="white"/>
<path d="M11.828 61.9999C12.7656 61.9999 13.5257 61.1911 13.5257 60.1934C13.5257 59.1957 12.7656 58.3868 11.828 58.3868C10.8904 58.3868 10.1303 59.1957 10.1303 60.1934C10.1303 61.1911 10.8904 61.9999 11.828 61.9999Z" fill="#BCA7FC"/>
<path d="M15.1888 61.9999C16.1264 61.9999 16.8865 61.1911 16.8865 60.1934C16.8865 59.1957 16.1264 58.3868 15.1888 58.3868C14.2512 58.3868 13.4911 59.1957 13.4911 60.1934C13.4911 61.1911 14.2512 61.9999 15.1888 61.9999Z" fill="#BCA7FC"/>
<path d="M18.5407 61.9999C19.4783 61.9999 20.2384 61.1911 20.2384 60.1934C20.2384 59.1957 19.4783 58.3868 18.5407 58.3868C17.6031 58.3868 16.843 59.1957 16.843 60.1934C16.843 61.1911 17.6031 61.9999 18.5407 61.9999Z" fill="#BCA7FC"/>
<path d="M21.9015 62.0004C22.8391 62.0004 23.5992 61.1916 23.5992 60.1939C23.5992 59.1962 22.8391 58.3873 21.9015 58.3873C20.9639 58.3873 20.2038 59.1962 20.2038 60.1939C20.2038 61.1916 20.9639 62.0004 21.9015 62.0004Z" fill="#BCA7FC"/>
<path d="M25.2556 61.9999C26.1932 61.9999 26.9533 61.1911 26.9533 60.1934C26.9533 59.1957 26.1932 58.3868 25.2556 58.3868C24.318 58.3868 23.5579 59.1957 23.5579 60.1934C23.5579 61.1911 24.318 61.9999 25.2556 61.9999Z" fill="#BCA7FC"/>
<path d="M28.6164 61.9999C29.554 61.9999 30.3141 61.1911 30.3141 60.1934C30.3141 59.1957 29.554 58.3868 28.6164 58.3868C27.6788 58.3868 26.9187 59.1957 26.9187 60.1934C26.9187 61.1911 27.6788 61.9999 28.6164 61.9999Z" fill="#BCA7FC"/>
<path d="M31.9705 61.9999C32.9081 61.9999 33.6682 61.1911 33.6682 60.1934C33.6682 59.1957 32.9081 58.3868 31.9705 58.3868C31.0329 58.3868 30.2728 59.1957 30.2728 60.1934C30.2728 61.1911 31.0329 61.9999 31.9705 61.9999Z" fill="#BCA7FC"/>
<path d="M35.3291 61.9999C36.2667 61.9999 37.0268 61.1911 37.0268 60.1934C37.0268 59.1957 36.2667 58.3868 35.3291 58.3868C34.3915 58.3868 33.6314 59.1957 33.6314 60.1934C33.6314 61.1911 34.3915 61.9999 35.3291 61.9999Z" fill="#BCA7FC"/>
<path d="M38.6832 61.9999C39.6208 61.9999 40.3809 61.1911 40.3809 60.1934C40.3809 59.1957 39.6208 58.3868 38.6832 58.3868C37.7456 58.3868 36.9855 59.1957 36.9855 60.1934C36.9855 61.1911 37.7456 61.9999 38.6832 61.9999Z" fill="#BCA7FC"/>
<path d="M42.044 61.9999C42.9816 61.9999 43.7417 61.1911 43.7417 60.1934C43.7417 59.1957 42.9816 58.3868 42.044 58.3868C41.1064 58.3868 40.3463 59.1957 40.3463 60.1934C40.3463 61.1911 41.1064 61.9999 42.044 61.9999Z" fill="#BCA7FC"/>
<path d="M45.3981 61.9999C46.3357 61.9999 47.0958 61.1911 47.0958 60.1934C47.0958 59.1957 46.3357 58.3868 45.3981 58.3868C44.4605 58.3868 43.7004 59.1957 43.7004 60.1934C43.7004 61.1911 44.4605 61.9999 45.3981 61.9999Z" fill="#BCA7FC"/>
<path d="M48.7589 61.9999C49.6965 61.9999 50.4566 61.1911 50.4566 60.1934C50.4566 59.1957 49.6965 58.3868 48.7589 58.3868C47.8213 58.3868 47.0612 59.1957 47.0612 60.1934C47.0612 61.1911 47.8213 61.9999 48.7589 61.9999Z" fill="#BCA7FC"/>
<path d="M52.113 61.9993C53.0506 61.9993 53.8107 61.1905 53.8107 60.1928C53.8107 59.1951 53.0506 58.3862 52.113 58.3862C51.1754 58.3862 50.4153 59.1951 50.4153 60.1928C50.4153 61.1905 51.1754 61.9993 52.113 61.9993Z" fill="#BCA7FC"/>
<path d="M55.4738 61.9999C56.4114 61.9999 57.1715 61.1911 57.1715 60.1934C57.1715 59.1957 56.4114 58.3868 55.4738 58.3868C54.5362 58.3868 53.7761 59.1957 53.7761 60.1934C53.7761 61.1911 54.5362 61.9999 55.4738 61.9999Z" fill="#BCA7FC"/>
<path d="M58.8279 61.9993C59.7656 61.9993 60.5256 61.1905 60.5256 60.1928C60.5256 59.1951 59.7656 58.3862 58.8279 58.3862C57.8903 58.3862 57.1302 59.1951 57.1302 60.1928C57.1302 61.1905 57.8903 61.9993 58.8279 61.9993Z" fill="#BCA7FC"/>
<path d="M62.1865 61.9999C63.1241 61.9999 63.8842 61.1911 63.8842 60.1934C63.8842 59.1957 63.1241 58.3868 62.1865 58.3868C61.2489 58.3868 60.4888 59.1957 60.4888 60.1934C60.4888 61.1911 61.2489 61.9999 62.1865 61.9999Z" fill="#BCA7FC"/>
<path d="M65.5406 61.9993C66.4782 61.9993 67.2383 61.1905 67.2383 60.1928C67.2383 59.1951 66.4782 58.3862 65.5406 58.3862C64.603 58.3862 63.8429 59.1951 63.8429 60.1928C63.8429 61.1905 64.603 61.9993 65.5406 61.9993Z" fill="#BCA7FC"/>
<path d="M68.8992 61.9999C69.8368 61.9999 70.5969 61.1911 70.5969 60.1934C70.5969 59.1957 69.8368 58.3868 68.8992 58.3868C67.9616 58.3868 67.2015 59.1957 67.2015 60.1934C67.2015 61.1911 67.9616 61.9999 68.8992 61.9999Z" fill="#BCA7FC"/>
<path d="M72.2578 61.9999C73.1954 61.9999 73.9555 61.1911 73.9555 60.1934C73.9555 59.1957 73.1954 58.3868 72.2578 58.3868C71.3201 58.3868 70.5601 59.1957 70.5601 60.1934C70.5601 61.1911 71.3201 61.9999 72.2578 61.9999Z" fill="#BCA7FC"/>
<path d="M75.6141 61.9999C76.5517 61.9999 77.3118 61.1911 77.3118 60.1934C77.3118 59.1957 76.5517 58.3868 75.6141 58.3868C74.6765 58.3868 73.9164 59.1957 73.9164 60.1934C73.9164 61.1911 74.6765 61.9999 75.6141 61.9999Z" fill="#BCA7FC"/>
<path d="M11.6538 26H75.5424C75.5424 26 93.3971 50.0104 77.2224 60.3235H10.2121C10.2121 60.3235 -4.6817 53.611 11.6538 26Z" fill="#7950F9"/>
<path d="M16.5953 48.1609C15.5886 51.4894 15.7971 55.845 18.8589 57.9176C19.1329 58.097 19.2103 58.4806 19.0138 58.7466C18.8291 59.0064 18.4717 59.0497 18.2275 58.8456C15.7971 57.0328 14.9571 53.7415 15.4039 50.7842C15.529 49.819 15.7375 48.8786 16.0651 47.9506C16.1187 47.8021 16.2796 47.7217 16.4225 47.7774C16.5714 47.833 16.6429 48.0001 16.5893 48.1548L16.5953 48.1609Z" fill="#BCA7FC"/>
<path d="M21.5046 48.1603C20.4979 51.4888 20.7064 55.8444 23.7683 57.9169C24.0423 58.0964 24.1197 58.4799 23.9231 58.746C23.7385 59.0058 23.3811 59.0491 23.1368 58.845C20.7064 57.0322 19.8665 53.7408 20.3133 50.7835C20.4443 49.8184 20.6469 48.878 20.9745 47.95C21.0281 47.8015 21.1889 47.7211 21.3319 47.7767C21.4808 47.8324 21.5523 47.9995 21.4987 48.1541L21.5046 48.1603Z" fill="#BCA7FC"/>
<path d="M71.7747 47.9555C73.0912 51.6119 72.9125 56.3881 69.6124 58.8505C69.3801 59.0485 69.0346 59.0114 68.8439 58.7701C68.6474 58.5226 68.6891 58.1514 68.9393 57.9596C72.0368 55.8932 72.2632 51.5129 71.2505 48.1659C71.1254 47.8132 71.6437 47.6029 71.7747 47.9617V47.9555Z" fill="#BCA7FC"/>
</svg>
