<svg width="30" height="30" viewBox="0 0 30 30" fill="none" xmlns="http://www.w3.org/2000/svg">
<path d="M28.6507 8.65107C28.6507 8.65107 28.6218 8.63185 28.6122 8.62224L17.9799 0.845883C17.8066 0.720924 17.5851 0.605575 17.3443 0.490227C15.8708 -0.163409 14.1566 -0.163409 12.6831 0.490227C12.4327 0.595963 12.2112 0.720924 12.0378 0.845883L1.40558 8.62224C1.40558 8.62224 1.37669 8.64146 1.36705 8.65107C0.115069 9.58347 -0.260529 11.0926 0.172851 12.4095C0.538816 13.5149 1.70413 14.2358 2.95611 14.2454L2.86944 24.8863C2.86944 27.7123 5.35414 30 8.42632 30H9.88056C10.2273 30 10.5065 29.7309 10.5065 29.3944V24.3864C10.5065 23.406 11.3252 22.6178 12.346 22.6178H17.5755C18.5867 22.6178 19.4149 23.4156 19.4149 24.3864V29.2406C19.4149 29.6636 19.7712 30 20.2046 30H21.5722C24.6444 30 27.1291 27.7123 27.1291 24.8863L27.0424 14.2454C28.2944 14.2358 29.4597 13.5149 29.8256 12.4095C30.259 11.083 29.8931 9.58347 28.6314 8.65107H28.6507Z" fill="#CBCBCB"/>
</svg>
