<svg width="20" height="20" viewBox="0 0 20 20" fill="none" xmlns="http://www.w3.org/2000/svg">
<path d="M15.3643 10.6125C15.342 8.07882 17.3949 6.86235 17.4856 6.80597C16.332 5.08444 14.5333 4.8445 13.8952 4.81571C12.3638 4.65855 10.9064 5.73586 10.1319 5.73586C9.35729 5.73586 8.15658 4.8421 6.88996 4.8673C5.21839 4.89009 3.68337 5.85703 2.82287 7.37461C1.09009 10.4386 2.3779 14.9805 4.06948 17.465C4.89349 18.6815 5.87642 20.0479 7.16777 19.9988C8.41438 19.9496 8.88524 19.1794 10.3897 19.1794C11.8941 19.1794 12.3167 19.9988 13.6339 19.9784C14.9723 19.9496 15.8211 18.7331 16.638 17.5166C17.5845 16.1046 17.9776 14.7382 18 14.6662C17.9706 14.6554 15.3891 13.6453 15.3632 10.6125H15.3643Z" fill="white"/>
<path d="M12.9515 3.31773C13.6419 2.43973 14.1066 1.21675 13.9789 0C12.9869 0.0398527 11.7845 0.698667 11.074 1.57293C10.4343 2.3538 9.87275 3.60168 10.0253 4.79228C11.1307 4.8807 12.2645 4.19823 12.9515 3.31773Z" fill="white"/>
</svg>
