<svg width="104" height="104" viewBox="0 0 104 104" fill="none" xmlns="http://www.w3.org/2000/svg">
<g filter="url(#filter0_d_1300_6042)">
<rect x="8" y="8" width="88" height="88" rx="10" fill="white"/>
<path d="M19.828 69.9999C20.7656 69.9999 21.5257 69.1911 21.5257 68.1934C21.5257 67.1957 20.7656 66.3868 19.828 66.3868C18.8904 66.3868 18.1303 67.1957 18.1303 68.1934C18.1303 69.1911 18.8904 69.9999 19.828 69.9999Z" fill="#BCA7FC"/>
<path d="M23.1888 69.9999C24.1264 69.9999 24.8865 69.1911 24.8865 68.1934C24.8865 67.1957 24.1264 66.3868 23.1888 66.3868C22.2512 66.3868 21.4911 67.1957 21.4911 68.1934C21.4911 69.1911 22.2512 69.9999 23.1888 69.9999Z" fill="#BCA7FC"/>
<path d="M26.5407 69.9999C27.4783 69.9999 28.2384 69.1911 28.2384 68.1934C28.2384 67.1957 27.4783 66.3868 26.5407 66.3868C25.6031 66.3868 24.843 67.1957 24.843 68.1934C24.843 69.1911 25.6031 69.9999 26.5407 69.9999Z" fill="#BCA7FC"/>
<path d="M29.9015 70.0004C30.8391 70.0004 31.5992 69.1916 31.5992 68.1939C31.5992 67.1962 30.8391 66.3873 29.9015 66.3873C28.9639 66.3873 28.2038 67.1962 28.2038 68.1939C28.2038 69.1916 28.9639 70.0004 29.9015 70.0004Z" fill="#BCA7FC"/>
<path d="M33.2556 69.9999C34.1932 69.9999 34.9533 69.1911 34.9533 68.1934C34.9533 67.1957 34.1932 66.3868 33.2556 66.3868C32.318 66.3868 31.5579 67.1957 31.5579 68.1934C31.5579 69.1911 32.318 69.9999 33.2556 69.9999Z" fill="#BCA7FC"/>
<path d="M36.6164 69.9999C37.554 69.9999 38.3141 69.1911 38.3141 68.1934C38.3141 67.1957 37.554 66.3868 36.6164 66.3868C35.6788 66.3868 34.9187 67.1957 34.9187 68.1934C34.9187 69.1911 35.6788 69.9999 36.6164 69.9999Z" fill="#BCA7FC"/>
<path d="M39.9705 69.9999C40.9081 69.9999 41.6682 69.1911 41.6682 68.1934C41.6682 67.1957 40.9081 66.3868 39.9705 66.3868C39.0329 66.3868 38.2728 67.1957 38.2728 68.1934C38.2728 69.1911 39.0329 69.9999 39.9705 69.9999Z" fill="#BCA7FC"/>
<path d="M43.3291 69.9999C44.2667 69.9999 45.0268 69.1911 45.0268 68.1934C45.0268 67.1957 44.2667 66.3868 43.3291 66.3868C42.3915 66.3868 41.6314 67.1957 41.6314 68.1934C41.6314 69.1911 42.3915 69.9999 43.3291 69.9999Z" fill="#BCA7FC"/>
<path d="M46.6832 69.9999C47.6208 69.9999 48.3809 69.1911 48.3809 68.1934C48.3809 67.1957 47.6208 66.3868 46.6832 66.3868C45.7456 66.3868 44.9855 67.1957 44.9855 68.1934C44.9855 69.1911 45.7456 69.9999 46.6832 69.9999Z" fill="#BCA7FC"/>
<path d="M50.044 69.9999C50.9816 69.9999 51.7417 69.1911 51.7417 68.1934C51.7417 67.1957 50.9816 66.3868 50.044 66.3868C49.1064 66.3868 48.3463 67.1957 48.3463 68.1934C48.3463 69.1911 49.1064 69.9999 50.044 69.9999Z" fill="#BCA7FC"/>
<path d="M53.3981 69.9999C54.3357 69.9999 55.0958 69.1911 55.0958 68.1934C55.0958 67.1957 54.3357 66.3868 53.3981 66.3868C52.4605 66.3868 51.7004 67.1957 51.7004 68.1934C51.7004 69.1911 52.4605 69.9999 53.3981 69.9999Z" fill="#BCA7FC"/>
<path d="M56.7589 69.9999C57.6965 69.9999 58.4566 69.1911 58.4566 68.1934C58.4566 67.1957 57.6965 66.3868 56.7589 66.3868C55.8213 66.3868 55.0612 67.1957 55.0612 68.1934C55.0612 69.1911 55.8213 69.9999 56.7589 69.9999Z" fill="#BCA7FC"/>
<path d="M60.113 69.9993C61.0506 69.9993 61.8107 69.1905 61.8107 68.1928C61.8107 67.1951 61.0506 66.3862 60.113 66.3862C59.1754 66.3862 58.4153 67.1951 58.4153 68.1928C58.4153 69.1905 59.1754 69.9993 60.113 69.9993Z" fill="#BCA7FC"/>
<path d="M63.4738 69.9999C64.4114 69.9999 65.1715 69.1911 65.1715 68.1934C65.1715 67.1957 64.4114 66.3868 63.4738 66.3868C62.5362 66.3868 61.7761 67.1957 61.7761 68.1934C61.7761 69.1911 62.5362 69.9999 63.4738 69.9999Z" fill="#BCA7FC"/>
<path d="M66.8279 69.9993C67.7656 69.9993 68.5256 69.1905 68.5256 68.1928C68.5256 67.1951 67.7656 66.3862 66.8279 66.3862C65.8903 66.3862 65.1302 67.1951 65.1302 68.1928C65.1302 69.1905 65.8903 69.9993 66.8279 69.9993Z" fill="#BCA7FC"/>
<path d="M70.1865 69.9999C71.1241 69.9999 71.8842 69.1911 71.8842 68.1934C71.8842 67.1957 71.1241 66.3868 70.1865 66.3868C69.2489 66.3868 68.4888 67.1957 68.4888 68.1934C68.4888 69.1911 69.2489 69.9999 70.1865 69.9999Z" fill="#BCA7FC"/>
<path d="M73.5406 69.9993C74.4782 69.9993 75.2383 69.1905 75.2383 68.1928C75.2383 67.1951 74.4782 66.3862 73.5406 66.3862C72.603 66.3862 71.8429 67.1951 71.8429 68.1928C71.8429 69.1905 72.603 69.9993 73.5406 69.9993Z" fill="#BCA7FC"/>
<path d="M76.8992 69.9999C77.8368 69.9999 78.5969 69.1911 78.5969 68.1934C78.5969 67.1957 77.8368 66.3868 76.8992 66.3868C75.9616 66.3868 75.2015 67.1957 75.2015 68.1934C75.2015 69.1911 75.9616 69.9999 76.8992 69.9999Z" fill="#BCA7FC"/>
<path d="M80.2578 69.9999C81.1954 69.9999 81.9555 69.1911 81.9555 68.1934C81.9555 67.1957 81.1954 66.3868 80.2578 66.3868C79.3201 66.3868 78.5601 67.1957 78.5601 68.1934C78.5601 69.1911 79.3201 69.9999 80.2578 69.9999Z" fill="#BCA7FC"/>
<path d="M83.6141 69.9999C84.5517 69.9999 85.3118 69.1911 85.3118 68.1934C85.3118 67.1957 84.5517 66.3868 83.6141 66.3868C82.6765 66.3868 81.9164 67.1957 81.9164 68.1934C81.9164 69.1911 82.6765 69.9999 83.6141 69.9999Z" fill="#BCA7FC"/>
<path d="M19.6538 34H83.5424C83.5424 34 101.397 58.0104 85.2224 68.3235H18.2121C18.2121 68.3235 3.3183 61.611 19.6538 34Z" fill="#7950F9"/>
<path d="M24.5953 56.1609C23.5886 59.4894 23.7971 63.845 26.8589 65.9176C27.1329 66.097 27.2103 66.4806 27.0138 66.7466C26.8291 67.0064 26.4717 67.0497 26.2275 66.8456C23.7971 65.0328 22.9571 61.7415 23.4039 58.7842C23.529 57.819 23.7375 56.8786 24.0651 55.9506C24.1187 55.8021 24.2796 55.7217 24.4225 55.7774C24.5714 55.833 24.6429 56.0001 24.5893 56.1548L24.5953 56.1609Z" fill="#BCA7FC"/>
<path d="M29.5046 56.1603C28.4979 59.4888 28.7064 63.8444 31.7683 65.9169C32.0423 66.0964 32.1197 66.4799 31.9231 66.746C31.7385 67.0058 31.3811 67.0491 31.1368 66.845C28.7064 65.0322 27.8665 61.7408 28.3133 58.7835C28.4443 57.8184 28.6469 56.878 28.9745 55.95C29.0281 55.8015 29.1889 55.7211 29.3319 55.7767C29.4808 55.8324 29.5523 55.9995 29.4987 56.1541L29.5046 56.1603Z" fill="#BCA7FC"/>
<path d="M79.7747 55.9555C81.0912 59.6119 80.9125 64.3881 77.6124 66.8505C77.3801 67.0485 77.0346 67.0114 76.8439 66.7701C76.6474 66.5226 76.6891 66.1514 76.9393 65.9596C80.0368 63.8932 80.2632 59.5129 79.2505 56.1659C79.1254 55.8132 79.6437 55.6029 79.7747 55.9617V55.9555Z" fill="#BCA7FC"/>
</g>
<defs>
<filter id="filter0_d_1300_6042" x="0.9" y="0.9" width="102.2" height="102.2" filterUnits="userSpaceOnUse" color-interpolation-filters="sRGB">
<feFlood flood-opacity="0" result="BackgroundImageFix"/>
<feColorMatrix in="SourceAlpha" type="matrix" values="0 0 0 0 0 0 0 0 0 0 0 0 0 0 0 0 0 0 127 0" result="hardAlpha"/>
<feOffset/>
<feGaussianBlur stdDeviation="3.55"/>
<feComposite in2="hardAlpha" operator="out"/>
<feColorMatrix type="matrix" values="0 0 0 0 0 0 0 0 0 0 0 0 0 0 0 0 0 0 0.25 0"/>
<feBlend mode="normal" in2="BackgroundImageFix" result="effect1_dropShadow_1300_6042"/>
<feBlend mode="normal" in="SourceGraphic" in2="effect1_dropShadow_1300_6042" result="shape"/>
</filter>
</defs>
</svg>
