<svg width="30" height="30" viewBox="0 0 30 30" fill="none" xmlns="http://www.w3.org/2000/svg">
<path d="M24.7668 4.11218C24.9489 2.84861 24.0839 1.64632 22.6725 1.20215L18.9754 0.0381467C18.1559 -0.130328 17.819 0.313832 17.819 0.313832C17.1998 0.911152 17.819 1.60037 17.819 1.60037C16.8538 2.03687 17.4183 2.86393 17.4183 2.86393L17.1907 4.00496L17.127 4.34191C16.7809 6.08027 18.1741 7.71907 20.2412 8.00242C22.29 8.28576 24.2296 7.11409 24.5665 5.39105L24.7668 4.11218Z" fill="#CBCBCB"/>
<path d="M10.4977 7.98698L15.0598 7.72661C15.8065 7.68066 16.5622 7.7649 17.2725 7.95635L22.2079 9.31181C23.0365 9.54154 23.5283 10.2461 23.3553 10.9659L22.7543 13.4854L25.7683 15.1855C26.5605 15.6296 26.7427 16.5562 26.1508 17.1918C25.6408 17.7509 24.712 17.8887 23.9927 17.5211L21.7435 16.3724L20.6053 20.2167L22.2534 21.9627C22.8726 22.6213 23.0001 23.5173 22.5813 24.2831L20.0043 28.9391C19.4943 29.8581 18.2013 30.2563 17.1177 29.8275C16.025 29.3986 15.5424 28.3112 16.0523 27.3922L17.4364 24.8881C17.8462 24.1453 17.7369 23.2799 17.1541 22.6213L15.5879 20.8677L12.1368 23.6245C11.4993 24.1299 10.5797 24.2908 9.75102 24.038L5.33464 22.6749C4.26925 22.3456 3.73201 21.3501 4.13267 20.4618C4.53333 19.5811 5.68978 19.137 6.73696 19.4662L8.61278 20.0559C9.54158 20.3469 10.5888 20.1019 11.2171 19.4509L11.299 19.3667C11.9455 18.6928 12.4099 17.904 12.6558 17.0617L14.4041 11.188L12.0912 11.0348C11.4993 10.9966 10.953 11.2876 10.7345 11.747L9.70549 13.9372C9.34125 14.7107 8.31229 15.0936 7.39259 14.8026C6.42736 14.4962 5.96295 13.5696 6.37272 12.7732L8.13017 9.39604C8.54904 8.59961 9.45963 8.0559 10.4886 8.0023L10.4977 7.98698Z" fill="#CBCBCB"/>
</svg>
