<svg width="30" height="30" viewBox="0 0 30 30" fill="none" xmlns="http://www.w3.org/2000/svg">
<path d="M28.8992 23.4336H7.91029C6.06091 23.4336 4.48307 21.91 4.32896 19.961L2.11265 3.69598C2.05394 2.95349 1.56958 2.40436 0.931104 2.30382C0.329324 2.20328 -0.0816469 1.61548 0.0137572 0.981273C0.101822 0.347069 0.666913 -0.0860462 1.26869 0.0144984C2.91258 0.277461 4.16017 1.69282 4.29961 3.44075L6.51591 19.7058C6.58196 20.5256 7.19109 21.1134 7.91029 21.1134H28.8992C29.5083 21.1134 30 21.6316 30 22.2735C30 22.9155 29.5083 23.4336 28.8992 23.4336Z" fill="#CBCBCB"/>
<path d="M8.75533 4.3841H28.3425C29.0911 4.3841 29.6415 5.12658 29.458 5.88453L28.027 17.656C27.9022 18.1974 27.4398 18.5764 26.9115 18.5764H10.2011C9.59929 18.5764 9.09292 18.0814 9.04889 17.4472L7.60315 5.67571C7.55912 4.9719 8.0875 4.37637 8.75533 4.37637V4.3841Z" fill="#CBCBCB"/>
<path d="M26.6396 30C27.8596 30 28.8486 28.9577 28.8486 27.672C28.8486 26.3863 27.8596 25.344 26.6396 25.344C25.4196 25.344 24.4307 26.3863 24.4307 27.672C24.4307 28.9577 25.4196 30 26.6396 30Z" fill="#CBCBCB"/>
<path d="M9.36229 30C10.5823 30 11.5713 28.9577 11.5713 27.672C11.5713 26.3863 10.5823 25.344 9.36229 25.344C8.14231 25.344 7.15332 26.3863 7.15332 27.672C7.15332 28.9577 8.14231 30 9.36229 30Z" fill="#CBCBCB"/>
</svg>
